# xmcd
#
# Track frame offsets:
#	150
#	18604
#	33942
#	53110
#	69449
#	87317
#	101205
#	122124
#	144189
#	168484
#	186006
#	201790
#
# Disc length: 2932 seconds
#
# Revision: 0
# Processed by: cddbd v1.5.2PL0 Copyright (c) Steve Scherf et al.
# Submitted via: audiograbber 1.83.01
#
DISCID=a30b720c
DTITLE=In Flames - Siren Charms
DYEAR=2014
DGENRE=Metal
TTITLE0=In Plain View
TTITLE1=Everything's Gone
TTITLE2=Paralyzed
TTITLE3=Through Oblivion
TTITLE4=With Eyes Wide Open
TTITLE5=Siren Charms
TTITLE6=When the World Explodes
TTITLE7=Rusted Nail
TTITLE8=Dead Eyes
TTITLE9=Monsters in the Ballroom
TTITLE10=Filtered Truth
TTITLE11=Become the Sky
EXTD=
EXTT0=
EXTT1=
EXTT2=
EXTT3=
EXTT4=
EXTT5=
EXTT6=
EXTT7=
EXTT8=
EXTT9=
EXTT10=
EXTT11=
PLAYORDER=
